<?xml version="1.0" encoding="utf-8"?><svg viewBox="0 0 502.66 502.66" xmlns="http://www.w3.org/2000/svg" xmlns:xlink="http://www.w3.org/1999/xlink"><style>:root>svg{display:none}:root>svg:target{display:block}</style><svg viewBox="0 0 13 8" id="arrow_button" xmlns="http://www.w3.org/2000/svg"><path fill-rule="evenodd" clip-rule="evenodd" d="M9.334.146l3.182 3.182a.5.5 0 010 .708L9.334 7.218a.5.5 0 11-.707-.708l2.328-2.328H0v-1h10.955L8.627.854a.5.5 0 11.707-.708z"/></svg><svg viewBox="0 0 24 24" id="basket" xmlns="http://www.w3.org/2000/svg"><g clip-path="url(#ba)"><path fill-rule="evenodd" clip-rule="evenodd" d="M.477 3.054c-.401.118-.595.534-.401.852.188.298.237.308 2.033.324 1.348.01 1.657.03 1.706.087.024.04.285 1.093.576 2.335l.004.017c.376 1.625.55 2.375.715 3.127.143.645.28 1.29.535 2.49l.112.53c.443 2.073.655 2.945.758 3.14.274.508.856.878 1.542.99.461.073 11.762.073 12.242-.004.655-.103 1.238-.467 1.535-.96.073-.123.558-1.848 1.165-4.152.899-3.418 1.032-3.977.996-4.224-.08-.59-.547-1.165-1.178-1.421l-.34-.144-8.375-.025-8.376-.026-.218-.934c-.121-.513-.267-1.037-.322-1.165-.127-.282-.491-.595-.874-.755-.273-.112-.352-.118-1.954-.133-1.214-.01-1.724.005-1.881.051zm21.916 4.388c.103.098.175.226.175.308 0 .247-1.948 7.575-2.057 7.734a.631.631 0 01-.31.216c-.303.087-11.713.087-12.017 0a.6.6 0 01-.31-.216c-.066-.092-.327-1.226-.691-2.925a704.71 704.71 0 00-1.099-5.173l-.036-.139 8.084.01 8.084.016.176.17zM9 18.09c-1.044.387-1.341 1.712-.557 2.492.33.33.55.419 1.044.419.652 0 1.1-.273 1.398-.85.158-.317.152-.97-.019-1.3-.36-.692-1.17-1.022-1.866-.761zm8.478.544c.205-.285.39-.424.749-.551.614-.234 1.407.05 1.772.633.173.279.192.367.192.797 0 .43-.02.52-.192.798-.122.19-.314.38-.505.5-.276.165-.378.19-.768.19-.365 0-.512-.032-.742-.158-.8-.443-1.043-1.481-.506-2.21z"/></g><defs><clipPath id="ba"><path d="M0 0h24v23.999H0z"/></clipPath></defs></svg><svg viewBox="0 0 24 24" id="button-arrow" xmlns="http://www.w3.org/2000/svg"><path fill-rule="evenodd" clip-rule="evenodd" d="M15.334 9.146l3.182 3.182a.5.5 0 010 .708l-3.182 3.182a.5.5 0 11-.707-.708l2.328-2.328H6v-1h10.955l-2.328-2.328a.5.5 0 01.707-.708z"/></svg><svg viewBox="0 0 502.664 502.664" id="icon" xmlns="http://www.w3.org/2000/svg"><path d="M153.821 358.226L0 274.337v-46.463l153.821-83.414v54.574L46.636 250.523l107.185 53.431v54.272zm26.273 29.358L282.103 115.08h32.227L212.084 387.584h-31.99zm168.749-29.358v-54.272l107.164-52.999-107.164-52.59v-53.927l153.821 83.522v46.183l-153.821 84.083z"/></svg></svg>